<svg xmlns="http://www.w3.org/2000/svg" viewBox="0 0 841.89 595.28">
    <defs>
        <style>
            .cls-3{fill: green;}
        </style>
    </defs>
    <title>Spectrum - Centurion Logo_2018</title>
    <g id="Layer_1-2" data-name="Layer 1">
        <path class="cls-3" d="M178.91,266.33Q158,269.38,158,274q0,9.81,52.65,14.85l61.21,5.9q30.69,3,52.24,6.36.09-15.25-.56-30.48a591.51,591.51,0,0,0-93-7.38Q199.85,263.28,178.91,266.33Z"/>
        <path class="cls-3" d="M224.07,248.22q40.92,0,98.42,4.28c-.91-12.94-2.2-25.8-3.91-38.5-1.15-8.38-7.88-15.13-15-15.35h-.72c-60.6,1.83-121.21,13.09-181.81,27.63-7.35,1.82-14.5,8.36-15.69,14.44q-1.52,8.06-2.61,16c2.57-.5,5.28-1,8.14-1.45Q154.18,248.22,224.07,248.22Z"/>
        <path class="cls-3" d="M104.5,349.65c.28,1.63.56,3.26.87,4.9,1.19,6.08,8.34,12.62,15.69,14.44,60.61,14.54,121.22,25.81,181.83,27.63h.39c7.22,0,14.13-6.85,15.3-15.34q2.24-16.65,3.55-33.59-43.74,5.94-114.51,5.94Q153.82,353.63,104.5,349.65Z"/>
        <path class="cls-3" d="M289,324.48q0-10.1-76.51-17.32-59-5.7-79.44-8.64-18.9-2.72-33.17-6.12c0,1.74,0,3.47,0,5.2a291,291,0,0,0,1.77,31.92q66.61,9,108.12,9.05Q289,338.57,289,324.48Z"/>
    </g>
</svg>