<svg xmlns="http://www.w3.org/2000/svg" viewBox="0 0 841.89 595.28">
    <defs>
        <style>
            .cls-1,.cls-2{fill:#000000;}.cls-1,.cls-3{fill-rule:evenodd;}.cls-3{fill:#e30613;}
        </style>
    </defs>
    <title>Spectrum - Centurion Logo_2018</title>
    <g id="Layer_1-2" data-name="Layer 1">
        <path class="cls-1" d="M381.86,266.73a25.23,25.23,0,0,0,11.68,3.42c4.11,0,5.8-1.42,5.8-3.79S398,262.75,393,261c-9.1-3.13-12.58-8.44-12.49-13.84,0-8.73,7-15.27,17.75-15.27a27.24,27.24,0,0,1,12.22,2.75l-2.32,9.86a22.14,22.14,0,0,0-9.45-2.56c-3.3,0-5.18,1.42-5.18,3.7s1.7,3.41,7,5.4c8.3,2.94,11.69,7.5,11.78,14.23,0,8.72-6.34,15.08-18.83,15.08A29.25,29.25,0,0,1,379.45,277Z"/>
        <path class="cls-1" d="M434.22,259.34a15.66,15.66,0,0,0,.27,3c.89,3.89,4,6.83,7.94,6.83,5.89,0,9.37-5.21,9.37-13.08,0-7.4-3.12-13-9.19-13-3.84,0-7.23,3-8.12,7.3a11.66,11.66,0,0,0-.27,2.55v6.36Zm-13.56-10.9c0-6.07-.17-11.19-.35-15.56h11.77l.63,6.45h.18c3.21-4.83,8.2-7.49,14.54-7.49,9.54,0,18.1,8.82,18.1,23.61,0,16.88-10.07,24.85-19.8,24.85-5.26,0-9.37-2.28-11.33-5.32h-.18v23H420.66Z"/>
        <path class="cls-1" d="M500.68,250.71c0-3.41-1.43-9.39-7.59-9.39-5.8,0-8.12,5.6-8.47,9.39Zm-16,9.86c.44,6.07,6,8.92,12.31,8.92a33.92,33.92,0,0,0,12-2l1.78,9.77a39.09,39.09,0,0,1-15.79,2.94c-14.8,0-23.28-9.1-23.28-23.71,0-11.76,7-24.75,22-24.75,14.09,0,19.44,11.67,19.44,23.14a40.44,40.44,0,0,1-.44,5.79Z"/>
        <path class="cls-1" d="M554.11,278.12c-2.41,1.23-7,2.18-12.13,2.18-14.09,0-23.11-9.2-23.11-23.81,0-13.55,8.75-24.65,25-24.65a29.71,29.71,0,0,1,10.35,1.8l-2.14,10.72a17.63,17.63,0,0,0-7.59-1.42c-7.13,0-11.77,5.4-11.68,13,0,8.53,5.35,13.08,12,13.08a18.11,18.11,0,0,0,7.76-1.52Z"/>
        <path class="cls-1" d="M578.18,220.27v12.61h9.73V243.5h-9.73v16.88c0,5.6,1.34,8.16,5.36,8.16a15.91,15.91,0,0,0,4-.38l.09,10.9a26.8,26.8,0,0,1-8.74,1.24,14,14,0,0,1-10.26-4c-2.5-2.75-3.75-7.2-3.75-13.75V243.5h-5.8V232.88h5.8v-8.72Z"/>
        <path class="cls-1" d="M595.85,248.15c0-6.83-.09-11.28-.36-15.27h11.6l.53,8.63H608c2.23-6.82,7.49-9.67,11.77-9.67a13.38,13.38,0,0,1,2.86.28v13.57a21,21,0,0,0-3.75-.38c-5,0-8.38,2.75-9.28,7.3a18,18,0,0,0-.26,3.22v23.42H595.76Z"/>
        <path class="cls-1" d="M670.52,264.37c0,6.06.18,11,.36,14.88H659.1l-.62-6.54h-.27a15.39,15.39,0,0,1-13.65,7.59c-8.92,0-15.35-5.88-15.35-20.2V232.88h13.57v24.94c0,6.73,2,10.81,6.86,10.81a7.25,7.25,0,0,0,6.78-5,8.09,8.09,0,0,0,.54-3.13v-27.6h13.56Z"/>
        <path class="cls-1" d="M681.4,247.68c0-5.79-.18-10.63-.35-14.8h11.5l.54,6.35h.27a14.92,14.92,0,0,1,13.2-7.39,12.32,12.32,0,0,1,12,8h.18a19.5,19.5,0,0,1,5.71-5.68,15.77,15.77,0,0,1,8.29-2.28c8.34,0,14.64,6.18,14.72,19.83v27.58h-13.2V254.13c0-6.74-2.05-10.63-6.42-10.63-3.21,0-5.35,2.28-6.34,5a16.27,16.27,0,0,0-.44,3.6v27.12h-13.2v-26c0-5.78-2-9.77-6.34-9.77-3.47,0-5.53,2.85-6.33,5.12a10.25,10.25,0,0,0-.53,3.7v26.93H681.4Z"/>
        <path class="cls-1" d="M383,380.52V334.63h7.85v45.89Zm3.75-54.33c-3,0-4.91-2.47-4.91-5.41a5.06,5.06,0,0,1,5.08-5.31,5,5,0,0,1,5,5.31,5.09,5.09,0,0,1-5.08,5.41Z"/>
        <path class="cls-1" d="M406.27,347.05c0-4.84-.09-8.63-.36-12.42h7l.45,7.49h.17a15.86,15.86,0,0,1,14.27-8.54c6,0,15.26,3.8,15.26,19.54v27.4h-7.85V354.07c0-7.4-2.59-13.66-10-13.66-5.09,0-9.1,3.89-10.53,8.53a13.12,13.12,0,0,0-.53,3.89v27.69h-7.85Z"/>
        <path class="cls-1" d="M487.63,353.31a16.38,16.38,0,0,0-.36-3.61c-1.16-5.21-5.44-9.57-11.33-9.57-8.12,0-12.94,7.58-12.94,17.63,0,9.39,4.37,17.07,12.76,17.07,5.26,0,10.08-3.79,11.51-10a15.16,15.16,0,0,0,.36-3.6v-8Zm7.85-40.11v55.47c0,4.08.09,8.72.35,11.85h-7l-.36-8h-.18a15.72,15.72,0,0,1-14.63,9c-10.44,0-18.56-9.39-18.56-23.33-.08-15.36,8.93-24.66,19.36-24.66,6.69,0,11.15,3.32,13,6.93h.18V313.2Z"/>
        <path class="cls-1" d="M547,368c0,4.74.09,8.91.36,12.51h-7L540,373h-.18a16,16,0,0,1-14.27,8.54c-6.78,0-14.9-4.08-14.9-20.11V334.63h7.85v25.31c0,8.73,2.59,14.7,9.64,14.7,5.26,0,8.92-3.88,10.35-7.68a12.18,12.18,0,0,0,.71-4.27V334.63H547Z"/>
        <path class="cls-1" d="M561.4,372.08a21.23,21.23,0,0,0,10.44,3.23c5.62,0,8.3-2.94,8.3-6.83s-2.23-6.16-7.94-8.44c-7.85-3-11.51-7.49-11.51-13,0-7.4,5.71-13.47,14.9-13.47a19.1,19.1,0,0,1,10.52,2.85l-1.87,6a17,17,0,0,0-8.83-2.65c-4.64,0-7.14,2.84-7.14,6.26,0,3.88,2.5,5.59,8.12,7.87,7.41,2.94,11.33,6.92,11.33,13.84,0,8.15-6,13.85-16.06,13.85a23.42,23.42,0,0,1-12.13-3.23Z"/>
        <path class="cls-1" d="M609.67,323.63v11h11.24V341H609.67v24.75c0,5.69,1.51,8.91,5.88,8.91a14.11,14.11,0,0,0,4.55-.56l.36,6.35a20.21,20.21,0,0,1-7,1.14,10.86,10.86,0,0,1-8.47-3.51c-2.14-2.56-3-6.64-3-12.05V341h-6.7v-6.35H602v-8.44Z"/>
        <path class="cls-1" d="M632.24,348.94c0-5.4-.09-10.05-.36-14.31h6.87l.36,9h.26c2-6.17,6.79-10.06,12-10.06a7.85,7.85,0,0,1,2.14.29v7.77a25.13,25.13,0,0,0-2.77-.19c-5.53,0-9.45,4.46-10.52,10.63a27.47,27.47,0,0,0-.27,4v24.46h-7.85Z"/>
        <path class="cls-1" d="M664.08,380.52V334.63h7.85v45.89Zm3.75-54.33c-3,0-4.91-2.47-4.91-5.41a5.06,5.06,0,0,1,5.08-5.31,5,5,0,0,1,5,5.31,5.09,5.09,0,0,1-5.08,5.41Z"/>
        <path class="cls-1" d="M710.11,357.1c-8.56-.19-18.29,1.42-18.29,10.34,0,5.5,3.39,8,7.32,8a11,11,0,0,0,10.62-7.68,9.29,9.29,0,0,0,.35-2.65v-8Zm7.67,12.42a81,81,0,0,0,.63,11h-7l-.71-5.78h-.27a15.68,15.68,0,0,1-13.2,6.83c-8.74,0-13.21-6.55-13.21-13.18,0-11.1,9.28-17.17,26-17.07v-.95c0-3.8-1-10.72-9.81-10.62a19.91,19.91,0,0,0-11.33,3.41L687,337.57a26.7,26.7,0,0,1,14.27-4c13.29,0,16.5,9.58,16.5,18.78Z"/>
        <rect class="cls-2" x="735.19" y="313.2" width="7.85" height="67.33"/>
        <path class="cls-3" d="M178.91,266.33Q158,269.38,158,274q0,9.81,52.65,14.85l61.21,5.9q30.69,3,52.24,6.36.09-15.25-.56-30.48a591.51,591.51,0,0,0-93-7.38Q199.85,263.28,178.91,266.33Z"/>
        <path class="cls-3" d="M224.07,248.22q40.92,0,98.42,4.28c-.91-12.94-2.2-25.8-3.91-38.5-1.15-8.38-7.88-15.13-15-15.35h-.72c-60.6,1.83-121.21,13.09-181.81,27.63-7.35,1.82-14.5,8.36-15.69,14.44q-1.52,8.06-2.61,16c2.57-.5,5.28-1,8.14-1.45Q154.18,248.22,224.07,248.22Z"/>
        <path class="cls-3" d="M104.5,349.65c.28,1.63.56,3.26.87,4.9,1.19,6.08,8.34,12.62,15.69,14.44,60.61,14.54,121.22,25.81,181.83,27.63h.39c7.22,0,14.13-6.85,15.3-15.34q2.24-16.65,3.55-33.59-43.74,5.94-114.51,5.94Q153.82,353.63,104.5,349.65Z"/>
        <path class="cls-3" d="M289,324.48q0-10.1-76.51-17.32-59-5.7-79.44-8.64-18.9-2.72-33.17-6.12c0,1.74,0,3.47,0,5.2a291,291,0,0,0,1.77,31.92q66.61,9,108.12,9.05Q289,338.57,289,324.48Z"/>
    </g>
</svg>